<mxfile host="app.diagrams.net" modified="2023-06-15T21:11:26.520Z" agent="Mozilla/5.0 (Windows NT 10.0; Win64; x64; rv:109.0) Gecko/20100101 Firefox/114.0" etag="yzHjFqzCh2ZFUsy1wu8d" version="21.4.0" type="device">
  <diagram id="xrxMtvPM4jD022jB3djA" name="ER модель">
    <mxGraphModel dx="1434" dy="782" grid="1" gridSize="10" guides="1" tooltips="1" connect="1" arrows="1" fold="1" page="1" pageScale="1" pageWidth="827" pageHeight="1169" math="0" shadow="0">
      <root>
        <mxCell id="0" />
        <mxCell id="1" parent="0" />
        <mxCell id="iiYwfUWWMAuivROCwT6N-1" style="edgeStyle=orthogonalEdgeStyle;rounded=0;orthogonalLoop=1;jettySize=auto;html=1;entryX=0;entryY=0.25;entryDx=0;entryDy=0;fontSize=11;startArrow=ERmandOne;startFill=0;endArrow=ERzeroToMany;endFill=0;exitX=1;exitY=0.144;exitDx=0;exitDy=0;exitPerimeter=0;" parent="1" source="iiYwfUWWMAuivROCwT6N-3" target="iiYwfUWWMAuivROCwT6N-5" edge="1">
          <mxGeometry relative="1" as="geometry" />
        </mxCell>
        <mxCell id="iiYwfUWWMAuivROCwT6N-2" value="Клиника" style="swimlane;childLayout=stackLayout;horizontal=1;startSize=30;horizontalStack=0;rounded=1;fontSize=14;fontStyle=0;strokeWidth=2;resizeParent=0;resizeLast=1;shadow=0;dashed=0;align=center;" parent="1" vertex="1">
          <mxGeometry x="60" y="40" width="160" height="130" as="geometry" />
        </mxCell>
        <mxCell id="iiYwfUWWMAuivROCwT6N-3" value="*Номер клиники&#xa;Индекс&#xa;Город&#xa;Улица&#xa;Дом&#xa;Номер телефона" style="align=left;strokeColor=none;fillColor=none;spacingLeft=4;fontSize=12;verticalAlign=top;resizable=0;rotatable=0;part=1;" parent="iiYwfUWWMAuivROCwT6N-2" vertex="1">
          <mxGeometry y="30" width="160" height="100" as="geometry" />
        </mxCell>
        <mxCell id="iiYwfUWWMAuivROCwT6N-4" value="Врач" style="swimlane;childLayout=stackLayout;horizontal=1;startSize=30;horizontalStack=0;rounded=1;fontSize=14;fontStyle=0;strokeWidth=2;resizeParent=0;resizeLast=1;shadow=0;dashed=0;align=center;" parent="1" vertex="1">
          <mxGeometry x="340" y="50" width="160" height="140" as="geometry" />
        </mxCell>
        <mxCell id="iiYwfUWWMAuivROCwT6N-5" value="*Табельный номер&#xa;Фамилия&#xa;Имя&#xa;Отчество &#xa;Стаж работы&#xa;Образование&#xa;Специализация" style="align=left;strokeColor=none;fillColor=none;spacingLeft=4;fontSize=12;verticalAlign=top;resizable=0;rotatable=0;part=1;" parent="iiYwfUWWMAuivROCwT6N-4" vertex="1">
          <mxGeometry y="30" width="160" height="110" as="geometry" />
        </mxCell>
        <mxCell id="iiYwfUWWMAuivROCwT6N-6" value="Пациент" style="swimlane;childLayout=stackLayout;horizontal=1;startSize=30;horizontalStack=0;rounded=1;fontSize=14;fontStyle=0;strokeWidth=2;resizeParent=0;resizeLast=1;shadow=0;dashed=0;align=center;" parent="1" vertex="1">
          <mxGeometry x="920" y="30" width="160" height="170" as="geometry" />
        </mxCell>
        <mxCell id="iiYwfUWWMAuivROCwT6N-7" value="*Номер карты&#xa;Фамилия&#xa;Имя &#xa;Отчество&#xa;Дата рождения&#xa;Номер телефона&#xa;Серия и номер паспорта&#xa;Страховой полис&#xa;Электронная почта" style="align=left;strokeColor=none;fillColor=none;spacingLeft=4;fontSize=12;verticalAlign=top;resizable=0;rotatable=0;part=1;" parent="iiYwfUWWMAuivROCwT6N-6" vertex="1">
          <mxGeometry y="30" width="160" height="140" as="geometry" />
        </mxCell>
        <mxCell id="iiYwfUWWMAuivROCwT6N-8" value="Запись" style="swimlane;childLayout=stackLayout;horizontal=1;startSize=30;horizontalStack=0;rounded=1;fontSize=14;fontStyle=0;strokeWidth=2;resizeParent=0;resizeLast=1;shadow=0;dashed=0;align=center;" parent="1" vertex="1">
          <mxGeometry x="640" y="90" width="160" height="100" as="geometry" />
        </mxCell>
        <mxCell id="iiYwfUWWMAuivROCwT6N-9" value="*Номер&#xa;Дата&#xa;Время&#xa;Номер кабинет" style="align=left;strokeColor=none;fillColor=none;spacingLeft=4;fontSize=12;verticalAlign=top;resizable=0;rotatable=0;part=1;" parent="iiYwfUWWMAuivROCwT6N-8" vertex="1">
          <mxGeometry y="30" width="160" height="70" as="geometry" />
        </mxCell>
        <mxCell id="iiYwfUWWMAuivROCwT6N-10" style="edgeStyle=orthogonalEdgeStyle;rounded=0;orthogonalLoop=1;jettySize=auto;html=1;entryX=1.001;entryY=0.205;entryDx=0;entryDy=0;fontSize=11;startArrow=ERmandOne;startFill=0;endArrow=ERzeroToMany;endFill=0;exitX=-0.008;exitY=0.289;exitDx=0;exitDy=0;entryPerimeter=0;exitPerimeter=0;" parent="1" source="iiYwfUWWMAuivROCwT6N-7" target="iiYwfUWWMAuivROCwT6N-9" edge="1">
          <mxGeometry relative="1" as="geometry" />
        </mxCell>
        <mxCell id="iiYwfUWWMAuivROCwT6N-11" style="edgeStyle=orthogonalEdgeStyle;rounded=0;orthogonalLoop=1;jettySize=auto;html=1;entryX=0;entryY=0.25;entryDx=0;entryDy=0;fontSize=11;startArrow=ERmandOne;startFill=0;endArrow=ERzeroToMany;endFill=0;" parent="1" target="iiYwfUWWMAuivROCwT6N-9" edge="1">
          <mxGeometry relative="1" as="geometry">
            <mxPoint x="500" y="90" as="sourcePoint" />
          </mxGeometry>
        </mxCell>
        <mxCell id="iiYwfUWWMAuivROCwT6N-12" value="&lt;font style=&quot;font-size: 12px;&quot;&gt;Работает&lt;/font&gt;" style="text;html=1;strokeColor=none;fillColor=none;align=center;verticalAlign=middle;whiteSpace=wrap;rounded=0;fontSize=20;" parent="1" vertex="1">
          <mxGeometry x="250" y="50" width="60" height="30" as="geometry" />
        </mxCell>
        <mxCell id="iiYwfUWWMAuivROCwT6N-13" value="&lt;font style=&quot;font-size: 12px;&quot;&gt;Принимает&lt;/font&gt;" style="text;html=1;strokeColor=none;fillColor=none;align=center;verticalAlign=middle;whiteSpace=wrap;rounded=0;fontSize=20;" parent="1" vertex="1">
          <mxGeometry x="540" y="60" width="60" height="30" as="geometry" />
        </mxCell>
        <mxCell id="iiYwfUWWMAuivROCwT6N-14" value="&lt;font style=&quot;font-size: 12px;&quot;&gt;Приходит&lt;/font&gt;" style="text;html=1;strokeColor=none;fillColor=none;align=center;verticalAlign=middle;whiteSpace=wrap;rounded=0;fontSize=20;" parent="1" vertex="1">
          <mxGeometry x="827" y="60" width="60" height="30" as="geometry" />
        </mxCell>
        <mxCell id="lbN7PNj9W-g48-HfLBqh-1" value=" Процедурный кабинет" style="swimlane;childLayout=stackLayout;horizontal=1;startSize=40;horizontalStack=0;rounded=1;fontSize=14;fontStyle=0;strokeWidth=2;resizeParent=0;resizeLast=1;shadow=0;dashed=0;align=center;whiteSpace=wrap;" parent="1" vertex="1">
          <mxGeometry x="334" y="250" width="160" height="110" as="geometry" />
        </mxCell>
        <mxCell id="lbN7PNj9W-g48-HfLBqh-2" value="*Номер кабинета&#xa;*День недели&#xa;Время работы&#xa;Время перерыва" style="align=left;strokeColor=none;fillColor=none;spacingLeft=4;fontSize=12;verticalAlign=top;resizable=0;rotatable=0;part=1;" parent="lbN7PNj9W-g48-HfLBqh-1" vertex="1">
          <mxGeometry y="40" width="160" height="70" as="geometry" />
        </mxCell>
        <mxCell id="lbN7PNj9W-g48-HfLBqh-3" style="edgeStyle=orthogonalEdgeStyle;rounded=0;orthogonalLoop=1;jettySize=auto;html=1;entryX=0;entryY=0.25;entryDx=0;entryDy=0;fontSize=11;startArrow=ERmandOne;startFill=0;endArrow=ERoneToMany;endFill=0;exitX=0.5;exitY=1;exitDx=0;exitDy=0;" parent="1" source="iiYwfUWWMAuivROCwT6N-3" target="lbN7PNj9W-g48-HfLBqh-2" edge="1">
          <mxGeometry relative="1" as="geometry">
            <mxPoint x="99.50999999999999" y="220" as="sourcePoint" />
            <mxPoint x="219.51" y="244" as="targetPoint" />
          </mxGeometry>
        </mxCell>
        <mxCell id="lbN7PNj9W-g48-HfLBqh-4" value="Содержит" style="edgeLabel;html=1;align=center;verticalAlign=middle;resizable=0;points=[];fontSize=13;" parent="lbN7PNj9W-g48-HfLBqh-3" vertex="1" connectable="0">
          <mxGeometry x="-0.0921" relative="1" as="geometry">
            <mxPoint x="33" y="-15" as="offset" />
          </mxGeometry>
        </mxCell>
        <mxCell id="lbN7PNj9W-g48-HfLBqh-5" value="Результат анализа" style="swimlane;childLayout=stackLayout;horizontal=1;startSize=30;horizontalStack=0;rounded=1;fontSize=14;fontStyle=0;strokeWidth=2;resizeParent=0;resizeLast=1;shadow=0;dashed=0;align=center;" parent="1" vertex="1">
          <mxGeometry x="650" y="250" width="170" height="120" as="geometry" />
        </mxCell>
        <mxCell id="lbN7PNj9W-g48-HfLBqh-6" value="*Номер заявки лаборатории&#xa;Уведомление о готовности&#xa;Размер файла&#xa;Дата файла&#xa;Ссылка на PDF файл&#xa;" style="align=left;strokeColor=none;fillColor=none;spacingLeft=4;fontSize=12;verticalAlign=top;resizable=0;rotatable=0;part=1;" parent="lbN7PNj9W-g48-HfLBqh-5" vertex="1">
          <mxGeometry y="30" width="170" height="90" as="geometry" />
        </mxCell>
        <mxCell id="lbN7PNj9W-g48-HfLBqh-7" style="edgeStyle=orthogonalEdgeStyle;rounded=0;orthogonalLoop=1;jettySize=auto;html=1;entryX=1;entryY=0.5;entryDx=0;entryDy=0;fontSize=11;startArrow=ERmandOne;startFill=0;endArrow=ERzeroToMany;endFill=0;exitX=0.5;exitY=1;exitDx=0;exitDy=0;" parent="1" source="iiYwfUWWMAuivROCwT6N-7" target="lbN7PNj9W-g48-HfLBqh-6" edge="1">
          <mxGeometry relative="1" as="geometry">
            <mxPoint x="979" y="278" as="sourcePoint" />
            <mxPoint x="860" y="312" as="targetPoint" />
          </mxGeometry>
        </mxCell>
        <mxCell id="xVSFSvUpjQ6LYdKnkIZ_-1" value="Получает" style="edgeLabel;html=1;align=center;verticalAlign=middle;resizable=0;points=[];fontSize=13;" parent="lbN7PNj9W-g48-HfLBqh-7" vertex="1" connectable="0">
          <mxGeometry x="0.3206" y="-2" relative="1" as="geometry">
            <mxPoint x="3" y="-13" as="offset" />
          </mxGeometry>
        </mxCell>
      </root>
    </mxGraphModel>
  </diagram>
</mxfile>
